<svg xmlns="http://www.w3.org/2000/svg" width="48" height="48" id="hourglass">
  <g transform="translate(0 -1004.362)">
    <circle cx="24" cy="1028.362" r="24" fill="#ffa40b" fill-rule="evenodd"></circle>
    <path fill="#ff7712" d="M19.014 9.998c-5.52 0-10.006 4.484-10.006 10.002a10.015 10.015 0 0 0 .449 2.97v.003c.097.312.212.617.338.916v.002c.06.143.136.28.203.42.072.15.137.304.217.45l.002.003c.153.282.32.559.5.824l.002.002c.18.265.37.521.574.767l.002.002c.203.247.417.482.643.707l.003.002.018.018 19.646 19.646a24 24 0 0 0 14.606-13.677L26.088 12.932l-.002-.002c-.226-.226-.462-.441-.709-.645h-.002a10.046 10.046 0 0 0-1.594-1.078h-.002a9.943 9.943 0 0 0-1.79-.758h-.003a9.942 9.942 0 0 0-.957-.248h-.002a10.018 10.018 0 0 0-2.013-.203z" color="#000" font-family="sans-serif" font-weight="400" style="line-height:normal;text-indent:0;text-align:start;text-decoration-line:none;text-decoration-style:solid;text-decoration-color:#000;text-transform:none;block-progression:tb;isolation:auto;mix-blend-mode:normal" transform="translate(0 1004.362)"></path>
    <path fill="#fff" d="M19.013 1014.36c-5.52 0-10.006 4.485-10.005 10.002 0 5.518 4.485 10 10.005 10a9.953 9.953 0 0 0 4.688-1.168l2 2.002a.5.5 0 0 0 .707 0l.164-.164 1.428 1.43 3.414 3.418 1.838 1.84a2.2 2.2 0 0 0 3.107 0 2.209 2.209 0 0 0 0-3.112l-6.678-6.683.166-.166a.5.5 0 0 0 0-.707l-2-2a9.94 9.94 0 0 0 1.172-4.69c0-5.517-4.485-10.001-10.006-10.002zm0 1a8.997 8.997 0 0 1 9.006 9.002c0 4.977-4.025 9-9.006 9a8.995 8.995 0 0 1-9.005-9 8.996 8.996 0 0 1 9.005-9.002zm.002 1c-4.412 0-7.996 3.58-7.994 7.99.003 4.41 3.592 8 8.004 8 4.412 0 7.999-3.58 7.996-7.99-.002-4.41-3.593-8-8.006-8zm.002 1a6.997 6.997 0 0 1 7.004 6.999 6.983 6.983 0 0 1-6.996 6.992 6.999 6.999 0 0 1-7.004-7 6.981 6.981 0 0 1 6.996-6.99zm8.303 12.577 1.467 1.468-2.73 2.73-1.471-1.47a10.075 10.075 0 0 0 2.734-2.728zm1.654 2.695 6.678 6.684a1.188 1.188 0 0 1 0 1.697 1.185 1.185 0 0 1-1.693 0l-1.838-1.84-3.414-3.418-1.428-1.43 1.695-1.693z" color="#000" font-family="sans-serif" font-weight="400" overflow="visible" style="line-height:normal;text-indent:0;text-align:start;text-decoration-line:none;text-decoration-style:solid;text-decoration-color:#000;text-transform:none;block-progression:tb;isolation:auto;mix-blend-mode:normal"></path>
  </g>
</svg>
